<svg width="20" height="20" viewBox="0 0 20 20" fill="none" xmlns="http://www.w3.org/2000/svg">
<path d="M9.94 19.25V12.16H7.5V9.43H9.94V7.43C9.94 6.31 10.22 5.47 10.86 4.83C11.5 4.19 12.34 3.87 13.42 3.87C14.22 3.87 14.94 3.91 15.5 3.99V6.39H14.06C13.54 6.39 13.18 6.51 12.98 6.75C12.82 6.99 12.74 7.31 12.74 7.71V9.43H15.51L15.15 12.16H12.75V19.25" stroke="#7B87A3" stroke-width="1.5" stroke-linecap="round" stroke-linejoin="round"/>
<path d="M15.14 19.25H4.86C2.59 19.25 0.75 17.41 0.75 15.14V4.86C0.75 2.59 2.59 0.75 4.86 0.75H15.14C17.41 0.75 19.25 2.59 19.25 4.86V15.14C19.25 17.41 17.41 19.25 15.14 19.25Z" stroke="#7B87A3" stroke-width="1.5" stroke-linecap="round" stroke-linejoin="round"/>
</svg>
