<svg width="20" height="20" viewBox="0 0 20 20" fill="none" xmlns="http://www.w3.org/2000/svg">
<path d="M19.25 10C19.25 12.32 18.39 14.46 16.97 16.07C15.55 17.7 13.57 18.83 11.33 19.14C10.9 19.21 10.46 19.24 10 19.24C9.54 19.24 9.11 19.21 8.67 19.14C6.43 18.83 4.45 17.7 3.03 16.07C1.61 14.46 0.75 12.32 0.75 10C0.75 7.68001 1.61 5.54001 3.03 3.93001C4.45 2.30001 6.43 1.17001 8.67 0.86001C9.1 0.79001 9.54 0.76001 10 0.76001C10.46 0.76001 10.89 0.79001 11.33 0.86001C13.57 1.17001 15.55 2.30001 16.97 3.93001C18.39 5.54001 19.25 7.68001 19.25 10Z" stroke="#7B87A3" stroke-width="1.5" stroke-linecap="round" stroke-linejoin="round"/>
<path d="M9.67 19.15C9.03 18.48 6 15.17 6 9.99998C6 4.82998 9.03 1.51998 9.67 0.849976" stroke="#7B87A3" stroke-width="1.5" stroke-linecap="round" stroke-linejoin="round"/>
<path d="M10.33 19.15C10.97 18.48 14 15.17 14 9.99998C14 4.82998 10.97 1.51998 10.33 0.849976" stroke="#7B87A3" stroke-width="1.5" stroke-linecap="round" stroke-linejoin="round"/>
<path d="M0.75 10H19.25" stroke="#7B87A3" stroke-width="1.5" stroke-linecap="round" stroke-linejoin="round"/>
</svg>
