<svg width="24" height="24" viewBox="0 0 24 24" fill="none" xmlns="http://www.w3.org/2000/svg">
<g clip-path="url(#clip0_1_7953)">
<path d="M23.5 11.999C23.5 18.3503 18.3513 23.499 12 23.499C5.64873 23.499 0.5 18.3503 0.5 11.999C0.5 5.64775 5.64873 0.499023 12 0.499023C18.3513 0.499023 23.5 5.64775 23.5 11.999Z" fill="#141948" stroke="url(#paint0_linear_1_7953)"/>
<path d="M19.1699 12.9653V17.9127H16.3016V13.2969C16.3016 12.1379 15.8874 11.3465 14.8489 11.3465C14.0563 11.3465 13.5855 11.8793 13.3776 12.3953C13.3021 12.5797 13.2826 12.8357 13.2826 13.0943V17.9125H10.4141C10.4141 17.9125 10.4526 10.0949 10.4141 9.28563H13.2828V10.5081C13.2771 10.5178 13.2689 10.5272 13.2638 10.5364H13.2828V10.5081C13.664 9.92159 14.3438 9.08306 15.868 9.08306C17.7551 9.08306 19.1699 10.316 19.1699 12.9653ZM7.41332 5.1272C6.43211 5.1272 5.79016 5.77128 5.79016 6.61752C5.79016 7.44578 6.4135 8.10848 7.37567 8.10848H7.39428C8.39475 8.10848 9.0168 7.44578 9.0168 6.61752C8.99776 5.77128 8.39475 5.1272 7.41332 5.1272ZM5.96065 17.9127H8.82813V9.28563H5.96065V17.9127Z" fill="#F1F2F2"/>
</g>
<defs>
<linearGradient id="paint0_linear_1_7953" x1="4.90762e-07" y1="12.4257" x2="24" y2="12.4257" gradientUnits="userSpaceOnUse">
<stop stop-color="#FB451D"/>
<stop offset="1" stop-color="#ED8409"/>
</linearGradient>
<clipPath id="clip0_1_7953">
<rect width="24" height="24" fill="white"/>
</clipPath>
</defs>
</svg>
