<svg width="40" height="40" viewBox="0 0 40 40" fill="none" xmlns="http://www.w3.org/2000/svg">
<path d="M3.3335 20.0002C3.3335 29.2049 10.7954 36.6668 20.0002 36.6668C29.2049 36.6668 36.6668 29.2049 36.6668 20.0002C36.6668 10.7954 29.2049 3.3335 20.0002 3.3335C10.7954 3.3335 3.3335 10.7954 3.3335 20.0002Z" fill="#0B5CFF"/>
<path d="M11.2882 14.4816C11.316 14.2067 11.2112 13.935 11.0059 13.75L8.91508 11.2312V10.855H15.4072L20.4253 21.8603L24.837 10.855H31.026V11.2312L29.2383 12.9453C29.0842 13.0627 29.0077 13.2558 29.0397 13.4469V26.0408C29.0077 26.2319 29.0842 26.425 29.2383 26.5425L30.9842 28.2565V28.6328H22.2025V28.2565L24.0111 26.5007C24.1888 26.323 24.1888 26.2708 24.1888 25.999V15.8194L19.1603 28.591H18.4808L12.6264 15.8194V24.3791C12.5776 24.7389 12.6971 25.1012 12.9504 25.3615L15.3027 28.2147V28.591H8.63281V28.2147L10.985 25.3615C11.2366 25.1008 11.3491 24.7361 11.2882 24.3791V14.4816Z" fill="white"/>
</svg>
