<svg width="21" height="20" viewBox="0 0 21 20" fill="none" xmlns="http://www.w3.org/2000/svg">
<path d="M10 0.75C4.78 0.75 0.75 4.59 0.75 9.74C0.75 12.43 1.83 14.78 3.66 16.38C3.96 16.68 3.88001 16.83 3.96001 18.54C3.96001 18.95 4.30001 19.25 4.71001 19.25C4.78001 19.25 4.89999 19.25 5.00999 19.21C6.94999 18.35 6.99001 18.28 7.32001 18.35C13.03 19.92 19.26 16.26 19.26 9.73C19.25 4.59 15.22 0.75 10 0.75ZM15.56 7.69L12.84 11.98C12.62 12.39 12.17 12.65 11.68 12.65C11.34 12.65 11.08 12.54 10.82 12.35L8.66 10.75C8.59 10.68 8.47001 10.64 8.32001 10.64C8.21001 10.64 8.1 10.68 7.98 10.75L5.07001 12.95C4.66001 13.25 4.17 12.76 4.44 12.35L7.16 8.06C7.38 7.65 7.83001 7.39 8.32001 7.39C8.66001 7.39 8.94999 7.5 9.17999 7.69L11.34 9.29C11.41 9.36 11.53 9.4 11.68 9.4C11.79 9.4 11.9 9.36 12.02 9.29L14.93 7.09C15.33 6.79 15.82 7.28 15.56 7.69Z" stroke="#7B87A3" stroke-width="1.5" stroke-linecap="round" stroke-linejoin="round"/>
</svg>
