<svg width="21" height="20" viewBox="0 0 21 20" fill="none" xmlns="http://www.w3.org/2000/svg">
<path d="M20.2 14.9299C20.34 14.6399 20.16 14.39 19.95 14.35C17.42 13.95 16.3 11.35 16.23 11.25C16.12 11.03 16.04 10.74 16.18 10.53C16.32 10.3 16.58 10.17 16.82 10.07C17.32 9.87996 18.94 9.34995 18.21 8.55995C17.89 8.21995 17.42 8.18996 17 8.32996C16.73 8.41996 16.22 8.68996 15.97 8.43996C16.04 7.13996 16.22 5.29995 15.75 4.24995C14.88 2.29995 13.08 1.32996 11.16 1.32996C11.12 1.32996 10.84 1.32996 10.8 1.32996C10.04 1.32996 7.47998 1.54995 6.24998 4.28995C5.93998 4.95995 5.92998 5.77995 5.93998 6.50995C5.93998 6.91995 5.96998 7.32995 5.98998 7.74995C5.99998 7.92995 6.01998 8.11995 6.01998 8.30995C6.02998 8.63995 5.57998 8.56996 5.36998 8.51996C5.04998 8.42996 4.75998 8.21996 4.40998 8.26996C4.03998 8.31996 3.73998 8.53995 3.63998 8.88995C3.56998 9.13995 3.70998 9.53995 4.53998 9.85995C4.85998 9.99995 5.65998 10.15 5.83998 10.58C5.90998 10.76 5.90998 10.98 5.76998 11.27C5.69998 11.38 4.57998 13.9799 2.04998 14.3699C1.86998 14.4099 1.72998 14.59 1.72998 14.77H1.76998C1.80998 15.53 3.46998 15.82 4.21998 15.96C4.28998 16.03 4.35998 16.47 4.46998 16.83C4.50998 16.97 4.60998 17.1499 4.89998 17.1499C5.18998 17.1499 5.61998 16.97 6.30998 16.97C7.24998 16.97 7.56998 17.1899 8.32998 17.7299C8.86998 18.0899 9.80998 18.78 10.97 18.7C12.09 18.74 12.85 18.2699 13.64 17.7299C14.4 17.1899 14.72 16.97 15.66 16.97C16.12 16.97 16.56 17.06 17.01 17.11C17.11 17.12 17.21 17.13 17.3 17.08C17.44 17.01 17.49 16.85 17.53 16.7C17.59 16.48 17.65 16.2599 17.7 16.0399C17.71 16.0099 17.72 15.98 17.74 15.95C17.77 15.92 17.8 15.92 17.84 15.91C18.1 15.91 18.41 15.81 18.66 15.75C18.92 15.69 19.17 15.62 19.41 15.52C19.73 15.39 20.07 15.2199 20.2 14.9299Z" stroke="#7B87A3" stroke-width="1.5" stroke-linecap="round" stroke-linejoin="round"/>
</svg>
