<svg width="40" height="40" viewBox="0 0 40 40" fill="none" xmlns="http://www.w3.org/2000/svg">
<path d="M20.0002 36.6668C29.2071 36.6668 36.6668 29.2071 36.6668 20.0002C36.6668 10.7932 29.2071 3.3335 20.0002 3.3335C10.7932 3.3335 3.3335 10.7932 3.3335 20.0002C3.3335 29.2071 10.7932 36.6668 20.0002 36.6668ZM10.9599 19.6391L27.0293 13.4432C27.7752 13.1738 28.4266 13.6252 28.1849 14.7529L28.1863 14.7516L25.4502 27.6418C25.2474 28.5557 24.7043 28.7779 23.9446 28.3474L19.7779 25.2766L17.7682 27.2127C17.546 27.4349 17.3585 27.6224 16.9279 27.6224L17.2238 23.3821L24.946 16.4057C25.2821 16.1099 24.871 15.9432 24.4279 16.2377L14.8849 22.246L10.771 20.9627C9.87794 20.6793 9.8585 20.0696 10.9599 19.6391V19.6391Z" fill="#0B5CFF"/>
</svg>
