<svg width="22" height="22" viewBox="0 0 22 22" fill="none" xmlns="http://www.w3.org/2000/svg">
<path d="M12.4877 20.1283C17.5304 19.3099 20.9549 14.5585 20.1365 9.51573C19.3181 4.473 14.5667 1.0485 9.52399 1.8669C4.48125 2.68531 1.05676 7.4367 1.87516 12.4794C2.69356 17.5222 7.44495 20.9467 12.4877 20.1283Z" stroke="#7B87A3" stroke-width="1.5" stroke-linecap="round" stroke-linejoin="round"/>
<path d="M5.84989 11.56C5.72989 11.51 5.50989 11.41 5.49989 11.26C5.48989 11.11 5.62989 10.94 5.95989 10.82L14.8699 7.38999C15.2799 7.23999 15.6499 7.49999 15.4999 8.09999L14.0099 15.26C13.8999 15.78 13.5999 15.89 13.1499 15.67C12.3499 15.13 11.5399 14.59 10.7399 14.05C10.3099 14.37 9.88989 14.7 9.45989 15.02C9.14989 14.2 8.82989 13.38 8.51989 12.56C8.23989 12.46 6.66989 11.91 5.84989 11.56Z" stroke="#7B87A3" stroke-width="1.5" stroke-linecap="round" stroke-linejoin="round"/>
</svg>
