<svg width="40" height="40" viewBox="0 0 40 40" fill="none" xmlns="http://www.w3.org/2000/svg">
<path d="M38.201 10C36.9176 10.5834 35.5342 10.9667 34.1008 11.1501C35.5675 10.2667 36.7009 8.86662 37.2343 7.1832C35.8509 8.01657 34.3174 8.59994 32.7007 8.93329C31.384 7.49988 29.5339 6.6665 27.4338 6.6665C23.5169 6.6665 20.3167 9.86667 20.3167 13.8169C20.3167 14.3836 20.3834 14.9336 20.5001 15.4503C14.5664 15.1503 9.28283 12.3001 5.76598 7.98324C5.14928 9.03329 4.79926 10.2667 4.79926 11.5668C4.79926 14.0502 6.04933 16.2503 7.98276 17.5004C6.79936 17.5004 5.69931 17.167 4.73259 16.667C4.73259 16.667 4.73259 16.667 4.73259 16.717C4.73259 20.1839 7.19939 23.084 10.4662 23.734C9.86619 23.9007 9.23282 23.9841 8.58279 23.9841C8.13277 23.9841 7.68274 23.9341 7.24939 23.8507C8.14943 26.6675 10.7662 28.7676 13.9164 28.8176C11.4829 30.7511 8.39945 31.8845 5.03261 31.8845C4.46591 31.8845 3.89922 31.8511 3.33252 31.7845C6.49935 33.8179 10.2662 35.0013 14.2998 35.0013C27.4338 35.0013 34.6508 24.1007 34.6508 14.6502C34.6508 14.3336 34.6508 14.0335 34.6341 13.7169C36.0342 12.7168 37.2343 11.4501 38.201 10Z" fill="#0B5CFF"/>
</svg>
