<svg width="1920" height="82" viewBox="0 0 1920 82" fill="none" xmlns="http://www.w3.org/2000/svg">
<path fill-rule="evenodd" clip-rule="evenodd" d="M396.245 45.5203C280.447 64.3435 171.827 82 0 82V81C171.745 81 280.298 63.3546 396.089 44.5326C404.658 43.1396 413.268 41.7401 421.945 40.3409C547.887 20.0332 688.165 -0.220057 930 0.00180631C1207.53 0.0018061 1345.41 20.2545 1468.73 40.5075C1475.98 41.6978 1483.18 42.8881 1490.35 44.0742C1605.19 63.0661 1713.63 81 1920 81V82C1713.55 82 1605.04 64.0558 1490.18 45.0607C1483.01 43.8746 1475.82 42.6845 1468.57 41.4943C1345.29 21.2482 1207.47 1.00181 930 1.00181C688.235 0.780007 548.013 21.0258 422.105 41.3282C413.426 42.7275 404.816 44.1271 396.245 45.5203Z" fill="#FB741D"/>
</svg>
