<svg width="40" height="40" viewBox="0 0 40 40" fill="none" xmlns="http://www.w3.org/2000/svg">
<path d="M35.98 11.985C35.5959 10.5569 34.47 9.43124 33.0422 9.04671C30.4338 8.33301 19.9998 8.33301 19.9998 8.33301C19.9998 8.33301 9.56621 8.33301 6.95777 9.01965C5.55742 9.40377 4.40405 10.5571 4.01994 11.985C3.3335 14.5932 3.3335 20.0023 3.3335 20.0023C3.3335 20.0023 3.3335 25.4388 4.01994 28.0197C4.40446 29.4476 5.52995 30.5732 6.95797 30.9578C9.59368 31.6717 20.0002 31.6717 20.0002 31.6717C20.0002 31.6717 30.4338 31.6717 33.0422 30.985C34.4702 30.6007 35.5959 29.475 35.9804 28.0472C36.6667 25.4388 36.6667 20.0298 36.6667 20.0298C36.6667 20.0298 36.6942 14.5932 35.98 11.985ZM16.6778 24.9995V15.0052L25.3542 20.0023L16.6778 24.9995Z" fill="#0B5CFF"/>
</svg>
